<svg width="163" height="214" viewBox="0 0 163 214" fill="none" xmlns="http://www.w3.org/2000/svg">
<path d="M6.5734 53.9575L2.37604 69.8872C-0.465148 80.6699 0.252074 92.0819 4.42092 102.424C9.71672 115.562 20.1659 125.955 33.3321 131.181L36.9065 132.599C53.1505 140.397 66.2539 153.496 74.0578 169.737L76.6254 175.08L91.2526 200.874C93.6088 205.029 97.0986 208.428 101.314 210.674C113.204 217.009 127.973 212.86 134.826 201.262L139.002 194.192L151.626 166.076C153.617 161.641 155.211 157.038 156.389 152.322L160.823 134.562C163.488 123.889 161.624 112.588 155.672 103.335C151.565 96.9514 145.721 91.8727 138.826 88.6963L117.337 78.7958L110.502 74.8019C100.432 68.9176 92.8943 59.5155 89.3415 48.4061L88.9654 47.2301C87.7271 43.3581 87.0968 39.3175 87.0968 35.2524V29.3048C87.0968 19.0566 81.6734 9.57355 72.8405 4.37685C65.9272 0.309541 57.6353 -0.704142 49.9458 1.57798L45.3584 2.93944C35.475 5.87267 27.1093 12.5151 22.0123 21.4765L14.2775 35.0753C10.9025 41.0091 8.31277 47.3563 6.5734 53.9575Z" fill="url(#paint0_linear_7_70)"/>
<defs>
<linearGradient id="paint0_linear_7_70" x1="81.5" y1="-2" x2="81.5" y2="222" gradientUnits="userSpaceOnUse">
<stop stop-color="#FFB4C9"/>
<stop offset="1" stop-color="#FFCF7F"/>
</linearGradient>
</defs>
</svg>
