<svg width="1604" height="744" viewBox="0 0 1604 744" fill="none" xmlns="http://www.w3.org/2000/svg">
<path d="M424.612 61.4608L272.001 19.1647C165.471 -10.5206 56.5252 57.9795 37.1132 166.851L15.0288 290.711C2.66314 360.064 31.6372 430.294 89.3067 470.753L118.383 491.153C129.905 499.236 142.124 506.276 154.896 512.189L174.947 521.472C242.854 552.911 317.123 568.181 391.924 566.083L474.775 563.759L649.108 560.268C688.426 559.48 727.726 562.56 766.441 569.463L855.752 585.388C901.568 593.557 946.279 607.029 988.981 625.532L1106.28 676.357L1210.27 708.719C1245.64 719.724 1282.25 726.252 1319.24 728.148L1387.38 731.64C1414.07 733.008 1440.7 727.891 1464.98 716.728C1514.24 694.085 1549.29 648.756 1558.81 595.384L1587.39 435.078C1605.87 331.407 1552.37 228.257 1456.98 183.648L1344.72 146.321C1304.73 133.024 1263.45 123.978 1221.56 119.332L1087.32 104.443L945.489 107.402L788.089 111.184L598.486 93.4337C539.697 87.9302 481.512 77.2308 424.612 61.4608Z" fill="url(#paint0_linear_58_2)" stroke="url(#paint1_linear_58_2)" stroke-width="24" stroke-linecap="round"/>
<defs>
<linearGradient id="paint0_linear_58_2" x1="854.974" y1="61.3545" x2="756.441" y2="613.98" gradientUnits="userSpaceOnUse">
<stop stop-color="#FFB4C9"/>
<stop offset="0.421437" stop-color="#FFBDB0"/>
<stop offset="1" stop-color="#FFCF7F"/>
</linearGradient>
<linearGradient id="paint1_linear_58_2" x1="854.974" y1="61.3545" x2="756.441" y2="613.98" gradientUnits="userSpaceOnUse">
<stop stop-color="#FFB4C9"/>
<stop offset="1" stop-color="#FFCF7F"/>
</linearGradient>
</defs>
</svg>
