<svg width="541" height="224" viewBox="0 0 541 224" fill="none" xmlns="http://www.w3.org/2000/svg">
<path d="M158.573 55.9575L154.376 71.8872C151.535 82.6699 152.252 94.0819 156.421 104.424C161.717 117.562 172.166 127.955 185.332 133.181L188.906 134.599C205.151 142.397 218.254 155.496 226.058 171.737L228.625 177.08L243.253 202.874C245.609 207.029 249.099 210.428 253.314 212.674C265.204 219.009 279.973 214.86 286.826 203.262L291.002 196.192L303.626 168.076C305.617 163.641 307.211 159.038 308.389 154.322L312.823 136.562C315.488 125.889 313.624 114.588 307.672 105.335C303.565 98.9514 297.721 93.8727 290.826 90.6963L269.337 80.7958L262.502 76.8019C252.432 70.9176 244.894 61.5155 241.342 50.4061L240.965 49.2301C239.727 45.3581 239.097 41.3175 239.097 37.2524V31.3048C239.097 21.0566 233.673 11.5735 224.841 6.37685C217.927 2.30954 209.635 1.29586 201.946 3.57798L197.358 4.93944C187.475 7.87267 179.109 14.5151 174.012 23.4765L166.278 37.0753C162.902 43.0091 160.313 49.3563 158.573 55.9575Z" fill="url(#paint0_linear_7_159)"/>
<path d="M28.776 176.536C29.7253 176.536 30.5733 176.376 31.32 176.056C32.0667 175.736 32.696 175.288 33.208 174.712C33.7307 174.136 34.1253 173.448 34.392 172.648C34.6693 171.848 34.808 170.968 34.808 170.008V156.072H37.896V170.008C37.896 171.331 37.6827 172.557 37.256 173.688C36.84 174.819 36.2373 175.8 35.448 176.632C34.6693 177.453 33.7147 178.099 32.584 178.568C31.4533 179.037 30.184 179.272 28.776 179.272C27.368 179.272 26.0987 179.037 24.968 178.568C23.8373 178.099 22.8773 177.453 22.088 176.632C21.2987 175.8 20.6907 174.819 20.264 173.688C19.848 172.557 19.64 171.331 19.64 170.008V156.072H22.728V169.992C22.728 170.952 22.8613 171.832 23.128 172.632C23.4053 173.432 23.8 174.12 24.312 174.696C24.8347 175.272 25.4693 175.725 26.216 176.056C26.9733 176.376 27.8267 176.536 28.776 176.536ZM53.6033 179H50.4993V156.072H53.6033V179ZM67.404 179.336C67.2653 179.709 67.0467 179.987 66.748 180.168C66.46 180.349 66.1613 180.44 65.852 180.44H64.652L74.268 156.488C74.396 156.147 74.588 155.885 74.844 155.704C75.1107 155.523 75.4147 155.432 75.756 155.432H76.972L67.404 179.336ZM96.8648 176.536C97.8141 176.536 98.6621 176.376 99.4088 176.056C100.155 175.736 100.785 175.288 101.297 174.712C101.819 174.136 102.214 173.448 102.481 172.648C102.758 171.848 102.897 170.968 102.897 170.008V156.072H105.985V170.008C105.985 171.331 105.771 172.557 105.345 173.688C104.929 174.819 104.326 175.8 103.537 176.632C102.758 177.453 101.803 178.099 100.673 178.568C99.5421 179.037 98.2728 179.272 96.8648 179.272C95.4568 179.272 94.1874 179.037 93.0568 178.568C91.9261 178.099 90.9661 177.453 90.1768 176.632C89.3874 175.8 88.7794 174.819 88.3528 173.688C87.9368 172.557 87.7288 171.331 87.7288 170.008V156.072H90.8168V169.992C90.8168 170.952 90.9501 171.832 91.2168 172.632C91.4941 173.432 91.8888 174.12 92.4008 174.696C92.9234 175.272 93.5581 175.725 94.3048 176.056C95.0621 176.376 95.9154 176.536 96.8648 176.536ZM136.076 179H133.004C132.769 179 132.583 178.941 132.444 178.824C132.316 178.696 132.209 178.557 132.124 178.408L125.98 168.776C125.895 169.032 125.799 169.251 125.692 169.432L119.708 178.408C119.601 178.557 119.484 178.696 119.356 178.824C119.239 178.941 119.073 179 118.86 179H115.98L123.868 167.224L116.3 156.072H119.388C119.612 156.072 119.777 156.109 119.884 156.184C119.991 156.259 120.087 156.365 120.172 156.504L126.156 165.688C126.231 165.464 126.343 165.219 126.492 164.952L132.14 156.568C132.225 156.419 132.327 156.301 132.444 156.216C132.561 156.12 132.7 156.072 132.86 156.072H135.82L128.22 167.08L136.076 179ZM173.365 159.656C173.269 159.816 173.162 159.939 173.045 160.024C172.938 160.099 172.805 160.136 172.645 160.136C172.463 160.136 172.25 160.045 172.005 159.864C171.759 159.683 171.45 159.485 171.077 159.272C170.714 159.048 170.271 158.845 169.749 158.664C169.237 158.483 168.613 158.392 167.877 158.392C167.183 158.392 166.57 158.488 166.037 158.68C165.514 158.861 165.071 159.112 164.709 159.432C164.357 159.752 164.09 160.131 163.909 160.568C163.727 160.995 163.637 161.459 163.637 161.96C163.637 162.6 163.791 163.133 164.101 163.56C164.421 163.976 164.837 164.333 165.349 164.632C165.871 164.931 166.458 165.192 167.109 165.416C167.77 165.629 168.442 165.853 169.125 166.088C169.818 166.323 170.49 166.589 171.141 166.888C171.802 167.176 172.389 167.544 172.901 167.992C173.423 168.44 173.839 168.989 174.149 169.64C174.469 170.291 174.629 171.091 174.629 172.04C174.629 173.043 174.458 173.987 174.117 174.872C173.775 175.747 173.274 176.509 172.613 177.16C171.962 177.811 171.157 178.323 170.197 178.696C169.247 179.069 168.165 179.256 166.949 179.256C165.455 179.256 164.101 178.989 162.885 178.456C161.669 177.912 160.629 177.181 159.765 176.264L160.661 174.792C160.746 174.675 160.847 174.579 160.965 174.504C161.093 174.419 161.231 174.376 161.381 174.376C161.519 174.376 161.674 174.435 161.845 174.552C162.026 174.659 162.229 174.797 162.453 174.968C162.677 175.139 162.933 175.325 163.221 175.528C163.509 175.731 163.834 175.917 164.197 176.088C164.57 176.259 164.991 176.403 165.461 176.52C165.93 176.627 166.458 176.68 167.045 176.68C167.781 176.68 168.437 176.579 169.013 176.376C169.589 176.173 170.074 175.891 170.469 175.528C170.874 175.155 171.183 174.712 171.397 174.2C171.61 173.688 171.717 173.117 171.717 172.488C171.717 171.795 171.557 171.229 171.237 170.792C170.927 170.344 170.517 169.971 170.005 169.672C169.493 169.373 168.906 169.123 168.245 168.92C167.583 168.707 166.911 168.493 166.229 168.28C165.546 168.056 164.874 167.8 164.213 167.512C163.551 167.224 162.965 166.851 162.453 166.392C161.941 165.933 161.525 165.363 161.205 164.68C160.895 163.987 160.741 163.133 160.741 162.12C160.741 161.309 160.895 160.525 161.205 159.768C161.525 159.011 161.983 158.339 162.581 157.752C163.189 157.165 163.93 156.696 164.805 156.344C165.69 155.992 166.703 155.816 167.845 155.816C169.125 155.816 170.287 156.019 171.333 156.424C172.389 156.829 173.317 157.416 174.117 158.184L173.365 159.656ZM201.556 158.68H194.132V179H191.044V158.68H183.604V156.072H201.556V158.68ZM220.846 176.536C221.795 176.536 222.643 176.376 223.39 176.056C224.137 175.736 224.766 175.288 225.278 174.712C225.801 174.136 226.195 173.448 226.462 172.648C226.739 171.848 226.878 170.968 226.878 170.008V156.072H229.966V170.008C229.966 171.331 229.753 172.557 229.326 173.688C228.91 174.819 228.307 175.8 227.518 176.632C226.739 177.453 225.785 178.099 224.654 178.568C223.523 179.037 222.254 179.272 220.846 179.272C219.438 179.272 218.169 179.037 217.038 178.568C215.907 178.099 214.947 177.453 214.158 176.632C213.369 175.8 212.761 174.819 212.334 173.688C211.918 172.557 211.71 171.331 211.71 170.008V156.072H214.798V169.992C214.798 170.952 214.931 171.832 215.198 172.632C215.475 173.432 215.87 174.12 216.382 174.696C216.905 175.272 217.539 175.725 218.286 176.056C219.043 176.376 219.897 176.536 220.846 176.536ZM262.441 167.544C262.441 169.261 262.169 170.824 261.625 172.232C261.081 173.64 260.313 174.845 259.321 175.848C258.329 176.851 257.135 177.629 255.737 178.184C254.351 178.728 252.815 179 251.129 179H242.569V156.072H251.129C252.815 156.072 254.351 156.349 255.737 156.904C257.135 157.448 258.329 158.227 259.321 159.24C260.313 160.243 261.081 161.448 261.625 162.856C262.169 164.264 262.441 165.827 262.441 167.544ZM259.257 167.544C259.257 166.136 259.065 164.877 258.681 163.768C258.297 162.659 257.753 161.72 257.049 160.952C256.345 160.184 255.492 159.597 254.489 159.192C253.487 158.787 252.367 158.584 251.129 158.584H245.673V176.488H251.129C252.367 176.488 253.487 176.285 254.489 175.88C255.492 175.475 256.345 174.893 257.049 174.136C257.753 173.368 258.297 172.429 258.681 171.32C259.065 170.211 259.257 168.952 259.257 167.544ZM288.097 176.472L288.081 179H273.953V156.072H288.081V158.6H277.057V166.216H285.985V168.648H277.057V176.472H288.097ZM318.038 156.072V179H316.486C316.24 179 316.032 178.957 315.862 178.872C315.702 178.787 315.542 178.643 315.382 178.44L302.118 161.16C302.139 161.427 302.155 161.688 302.166 161.944C302.176 162.2 302.182 162.44 302.182 162.664V179H299.462V156.072H301.062C301.2 156.072 301.318 156.083 301.414 156.104C301.51 156.115 301.595 156.141 301.67 156.184C301.744 156.216 301.819 156.269 301.894 156.344C301.968 156.408 302.048 156.493 302.134 156.6L315.398 173.864C315.376 173.587 315.355 173.32 315.334 173.064C315.323 172.797 315.318 172.547 315.318 172.312V156.072H318.038ZM346.443 158.68H339.019V179H335.931V158.68H328.491V156.072H346.443V158.68ZM387.24 174.264C387.411 174.264 387.56 174.333 387.688 174.472L388.92 175.8C387.982 176.888 386.84 177.736 385.496 178.344C384.163 178.952 382.547 179.256 380.648 179.256C379.006 179.256 377.512 178.973 376.168 178.408C374.824 177.832 373.678 177.032 372.728 176.008C371.779 174.973 371.043 173.736 370.52 172.296C369.998 170.856 369.736 169.272 369.736 167.544C369.736 165.816 370.008 164.232 370.552 162.792C371.096 161.352 371.859 160.115 372.84 159.08C373.832 158.045 375.016 157.245 376.392 156.68C377.768 156.104 379.288 155.816 380.952 155.816C382.584 155.816 384.024 156.077 385.272 156.6C386.52 157.123 387.619 157.832 388.568 158.728L387.544 160.152C387.48 160.259 387.395 160.349 387.288 160.424C387.192 160.488 387.059 160.52 386.888 160.52C386.696 160.52 386.462 160.419 386.184 160.216C385.907 160.003 385.544 159.768 385.096 159.512C384.648 159.256 384.088 159.027 383.416 158.824C382.744 158.611 381.918 158.504 380.936 158.504C379.752 158.504 378.67 158.712 377.688 159.128C376.707 159.533 375.859 160.125 375.144 160.904C374.44 161.683 373.891 162.632 373.496 163.752C373.102 164.872 372.904 166.136 372.904 167.544C372.904 168.973 373.107 170.248 373.512 171.368C373.928 172.488 374.488 173.437 375.192 174.216C375.907 174.984 376.744 175.571 377.704 175.976C378.675 176.381 379.72 176.584 380.84 176.584C381.523 176.584 382.136 176.547 382.68 176.472C383.235 176.387 383.742 176.259 384.2 176.088C384.67 175.917 385.102 175.704 385.496 175.448C385.902 175.181 386.302 174.867 386.696 174.504C386.878 174.344 387.059 174.264 387.24 174.264ZM412.567 176.392V179H399.559V156.072H402.647V176.392H412.567ZM431.041 176.536C431.99 176.536 432.838 176.376 433.585 176.056C434.332 175.736 434.961 175.288 435.473 174.712C435.996 174.136 436.39 173.448 436.657 172.648C436.934 171.848 437.073 170.968 437.073 170.008V156.072H440.161V170.008C440.161 171.331 439.948 172.557 439.521 173.688C439.105 174.819 438.502 175.8 437.713 176.632C436.934 177.453 435.98 178.099 434.849 178.568C433.718 179.037 432.449 179.272 431.041 179.272C429.633 179.272 428.364 179.037 427.233 178.568C426.102 178.099 425.142 177.453 424.353 176.632C423.564 175.8 422.956 174.819 422.529 173.688C422.113 172.557 421.905 171.331 421.905 170.008V156.072H424.993V169.992C424.993 170.952 425.126 171.832 425.393 172.632C425.67 173.432 426.065 174.12 426.577 174.696C427.1 175.272 427.734 175.725 428.481 176.056C429.238 176.376 430.092 176.536 431.041 176.536ZM460.812 176.536C461.698 176.536 462.46 176.435 463.1 176.232C463.74 176.029 464.263 175.747 464.668 175.384C465.084 175.011 465.388 174.573 465.58 174.072C465.772 173.56 465.868 173 465.868 172.392C465.868 171.208 465.447 170.275 464.604 169.592C463.762 168.899 462.498 168.552 460.812 168.552H455.852V176.536H460.812ZM455.852 158.52V166.344H459.948C460.823 166.344 461.58 166.248 462.22 166.056C462.871 165.864 463.404 165.597 463.82 165.256C464.247 164.915 464.562 164.504 464.764 164.024C464.967 163.533 465.068 163 465.068 162.424C465.068 161.069 464.663 160.083 463.852 159.464C463.042 158.835 461.783 158.52 460.076 158.52H455.852ZM460.076 156.072C461.484 156.072 462.695 156.211 463.708 156.488C464.732 156.765 465.57 157.16 466.22 157.672C466.882 158.184 467.367 158.813 467.676 159.56C467.986 160.296 468.14 161.128 468.14 162.056C468.14 162.621 468.05 163.165 467.868 163.688C467.698 164.2 467.436 164.68 467.084 165.128C466.732 165.576 466.284 165.981 465.74 166.344C465.207 166.696 464.578 166.984 463.852 167.208C465.538 167.528 466.802 168.131 467.644 169.016C468.498 169.891 468.924 171.043 468.924 172.472C468.924 173.443 468.743 174.328 468.38 175.128C468.028 175.928 467.506 176.616 466.812 177.192C466.13 177.768 465.287 178.216 464.284 178.536C463.282 178.845 462.14 179 460.86 179H452.764V156.072H460.076Z" fill="black"/>
<path d="M63.6 44L64.6 69.1H62.7C59.7667 60.2333 57.1667 54.2 54.9 51C52.6333 47.7333 49.3667 46.1 45.1 46.1H43.9V111.9H52.4V114H15.9V111.9H24.4V46.1H23.1C18.8333 46.1 15.5333 47.8 13.2 51.2C10.8667 54.5333 8.3 60.5 5.5 69.1H3.6L4.6 44H63.6ZM95.3617 92.7C95.3617 98.8333 96.3951 103.533 98.4617 106.8C100.595 110.067 104.395 111.7 109.862 111.7C115.328 111.7 119.528 110 122.462 106.6C125.395 103.2 126.862 98.0333 126.862 91.1V45.9H120.362V44H134.962V45.9H129.462V90.4C129.462 98.6667 127.628 104.833 123.962 108.9C120.295 112.967 113.795 115 104.462 115C95.1951 115 88.0951 113.067 83.1617 109.2C78.2951 105.333 75.8617 98.7 75.8617 89.3V45.9H70.3617V44H101.862V45.9H95.3617V92.7ZM170.196 84.5L181.996 68.2H174.796V66.4H189.696V68.2H184.496L171.496 86.6L187.796 112.2H192.996V114H159.596V112.2H166.696L155.696 94.2L144.296 112.2H150.896V114H135.196V112.2H141.796L154.496 92.2L139.296 68.2H133.496V66.4H167.296V68.2H160.296L170.196 84.5ZM211.241 93.3C211.241 100.3 211.608 104.967 212.341 107.3C213.075 109.567 214.408 110.7 216.341 110.7C218.341 110.7 220.041 109.833 221.441 108.1C222.908 106.367 223.641 103.8 223.641 100.4V78.6C223.641 75.7333 223.075 73.3 221.941 71.3C220.808 69.3 219.141 68.3 216.941 68.3C214.741 68.3 213.241 69.7667 212.441 72.7C211.641 75.6333 211.241 80.7667 211.241 88.1V93.3ZM224.941 114L223.841 107C221.575 112.333 216.975 115 210.041 115C204.308 115 199.841 112.933 196.641 108.8C193.508 104.667 191.941 98.5 191.941 90.3C191.941 73.7 198.541 65.4 211.741 65.4C217.608 65.4 221.475 67.0333 223.341 70.3V40.8H217.241V39H242.241V112.2H247.141V114H224.941ZM276.03 115C267.43 115 260.964 112.8 256.63 108.4C252.364 103.933 250.23 97.7667 250.23 89.9C250.23 81.9667 252.63 75.9 257.43 71.7C262.297 67.5 268.464 65.4 275.93 65.4C291.064 65.4 298.33 73 297.73 88.2H269.53V92.1C269.53 98.6333 270.364 103.567 272.03 106.9C273.697 110.233 276.597 111.9 280.73 111.9C288.464 111.9 293.53 107.767 295.93 99.5L297.73 99.8C296.464 104.6 294.164 108.333 290.83 111C287.564 113.667 282.63 115 276.03 115ZM269.63 86.2H279.93V81.3C279.93 75.9 279.597 72.2333 278.93 70.3C278.33 68.3 277.064 67.3 275.13 67.3C273.264 67.3 271.864 68.3667 270.93 70.5C270.064 72.5667 269.63 76.1667 269.63 81.3V86.2ZM302.616 115V97.1H303.816C305.55 102.9 307.883 106.967 310.816 109.3C313.75 111.633 317.416 112.8 321.816 112.8C328.616 112.8 332.016 110.633 332.016 106.3C332.016 104.433 331.183 103.033 329.516 102.1C326.916 100.633 323.583 99.5 319.516 98.7C314.983 97.5 311.183 95.9 308.116 93.9C304.45 91.5 302.616 87.7 302.616 82.5C302.616 77.3 304.216 73.1667 307.416 70.1C310.616 66.9667 314.883 65.4 320.216 65.4C323.483 65.4 326.85 66.1667 330.316 67.7C331.583 68.2333 332.55 68.5 333.216 68.5C333.883 68.5 334.45 68.2667 334.916 67.8C335.383 67.3333 335.95 66.4667 336.616 65.2H337.716V80.5H336.516C333.116 71.8333 327.85 67.5 320.716 67.5C317.583 67.5 315.25 68.0667 313.716 69.2C312.183 70.2667 311.416 71.6333 311.416 73.3C311.416 74.3 311.65 75.1 312.116 75.7C312.583 76.2333 312.95 76.6333 313.216 76.9C313.483 77.1667 313.916 77.4667 314.516 77.8C315.116 78.0667 315.616 78.3 316.016 78.5C316.416 78.6333 317.016 78.8333 317.816 79.1C318.683 79.3667 319.316 79.5333 319.716 79.6C324.25 80.7333 327.516 81.7333 329.516 82.6C331.516 83.4 333.416 84.4 335.216 85.6C338.883 88.1333 340.716 92.2333 340.716 97.9C340.716 103.5 339.05 107.767 335.716 110.7C332.383 113.567 327.816 115 322.016 115C317.883 115 313.883 114.033 310.016 112.1C309.216 111.567 308.583 111.3 308.116 111.3C306.65 111.3 305.216 112.533 303.816 115H302.616ZM358.376 59.5C354.842 59.5 352.309 58.6 350.776 56.8C349.309 55 348.576 52.7667 348.576 50.1C348.576 47.4333 349.376 45.2333 350.976 43.5C352.642 41.7667 355.142 40.9 358.476 40.9C361.809 40.9 364.342 41.7 366.076 43.3C367.809 44.8333 368.676 47.0667 368.676 50C368.676 52.8667 367.842 55.1667 366.176 56.9C364.509 58.6333 361.909 59.5 358.376 59.5ZM343.276 66.4H367.776V112.2H373.376V114H343.676V112.2H349.176V68.2H343.276V66.4ZM415.514 61.2L418.314 59.5C418.714 57.4333 417.914 56.4 415.914 56.4C413.047 56.4 411.614 58.6 411.614 63C411.614 64.7333 411.847 66.7333 412.314 69C417.381 72.4 419.914 76.7667 419.914 82.1C419.914 87.3667 418.081 91.4667 414.414 94.4C410.747 97.3333 405.781 98.8 399.514 98.8C396.914 98.8 394.214 98.5333 391.414 98C388.481 99.8667 387.014 101.267 387.014 102.2C387.014 103.133 389.147 103.6 393.414 103.6H403.614C418.747 103.6 426.314 109.033 426.314 119.9C426.314 125.767 424.014 130.4 419.414 133.8C414.881 137.267 407.781 139 398.114 139C381.647 139 373.414 135.433 373.414 128.3C373.414 124.433 375.981 121.767 381.114 120.3L387.114 123C386.581 124.933 386.314 126.767 386.314 128.5C386.314 134.233 390.581 137.1 399.114 137.1C404.314 137.1 408.314 136.133 411.114 134.2C413.914 132.267 415.314 129.867 415.314 127C415.314 124.133 414.447 122.2 412.714 121.2C411.047 120.267 407.681 119.8 402.614 119.8H392.914C387.514 119.8 383.647 118.9 381.314 117.1C378.981 115.3 377.814 113.1 377.814 110.5C377.814 107.833 378.647 105.633 380.314 103.9C381.981 102.1 384.947 99.9 389.214 97.3C381.481 95.1 377.614 90.0333 377.614 82.1C377.614 77.1 379.414 73.0667 383.014 70C386.614 66.9333 392.014 65.4 399.214 65.4C403.547 65.4 407.247 66.2333 410.314 67.9C409.914 66.1 409.714 64.4667 409.714 63C409.714 59.2667 410.714 56.5667 412.714 54.9C414.714 53.2333 416.947 52.4 419.414 52.4C421.881 52.4 423.847 53.0667 425.314 54.4C426.847 55.6667 427.614 57.4333 427.614 59.7C427.614 61.9667 427.014 63.6667 425.814 64.8C424.614 65.8667 423.147 66.4 421.414 66.4C419.747 66.4 418.347 65.9667 417.214 65.1C416.147 64.1667 415.581 62.8667 415.514 61.2ZM394.314 79.9V85.3C394.314 89.7667 394.681 92.8 395.414 94.4C396.214 96 397.381 96.8 398.914 96.8C400.514 96.8 401.647 96.0333 402.314 94.5C403.047 92.9 403.414 89.6667 403.414 84.8V79.9C403.414 74.7 403.081 71.3 402.414 69.7C401.747 68.0333 400.614 67.2 399.014 67.2C397.481 67.2 396.314 68.0667 395.514 69.8C394.714 71.4667 394.314 74.8333 394.314 79.9ZM427.86 66.4H451.96V75.6C453.027 72.5333 454.66 70.0667 456.86 68.2C459.06 66.3333 462.393 65.4 466.86 65.4C477.193 65.4 482.36 70.9667 482.36 82.1V112.2H487.96V114H459.66V112.2H463.76V79.7C463.76 75.7 463.493 73.1333 462.96 72C462.427 70.8 461.46 70.2 460.06 70.2C457.927 70.2 456.027 71.6 454.36 74.4C452.76 77.2 451.96 80.6 451.96 84.6V112.2H456.26V114H427.86V112.2H433.36V68.2H427.86V66.4Z" fill="black"/>
<defs>
<linearGradient id="paint0_linear_7_159" x1="233.5" y1="0" x2="233.5" y2="224" gradientUnits="userSpaceOnUse">
<stop stop-color="#FFB4C9"/>
<stop offset="1" stop-color="#FFCF7F"/>
</linearGradient>
</defs>
</svg>
